<svg width="100" height="20" viewBox="0 0 100 20" fill="none" xmlns="http://www.w3.org/2000/svg">
<path d="M9.04896 3.92707C9.34831 3.00576 10.6517 3.00576 10.9511 3.92707L12.0206 7.21886C12.1545 7.63089 12.5385 7.90985 12.9717 7.90985H16.4329C17.4016 7.90985 17.8044 9.14946 17.0207 9.71886L14.2205 11.7533C13.87 12.0079 13.7234 12.4593 13.8572 12.8713L14.9268 16.1631C15.2262 17.0844 14.1717 17.8506 13.388 17.2812L10.5878 15.2467C10.2373 14.9921 9.76272 14.9921 9.41223 15.2467L6.61206 17.2812C5.82835 17.8506 4.77387 17.0844 5.07322 16.1631L6.14279 12.8713C6.27666 12.4593 6.13 12.0079 5.77952 11.7533L2.97935 9.71886C2.19563 9.14946 2.59841 7.90985 3.56713 7.90985H7.02833C7.46156 7.90985 7.84551 7.63089 7.97939 7.21886L9.04896 3.92707Z" fill="#EAB308"/>
<path d="M29.049 3.92707C29.3483 3.00576 30.6517 3.00576 30.9511 3.92707L32.0206 7.21886C32.1545 7.63089 32.5385 7.90985 32.9717 7.90985H36.4329C37.4016 7.90985 37.8044 9.14946 37.0207 9.71886L34.2205 11.7533C33.87 12.0079 33.7234 12.4593 33.8572 12.8713L34.9268 16.1631C35.2262 17.0844 34.1717 17.8506 33.388 17.2812L30.5878 15.2467C30.2373 14.9921 29.7627 14.9921 29.4122 15.2467L26.6121 17.2812C25.8283 17.8506 24.7739 17.0844 25.0732 16.1631L26.1428 12.8713C26.2767 12.4593 26.13 12.0079 25.7795 11.7533L22.9793 9.71886C22.1956 9.14946 22.5984 7.90985 23.5671 7.90985H27.0283C27.4616 7.90985 27.8455 7.63089 27.9794 7.21886L29.049 3.92707Z" fill="#EAB308"/>
<path d="M49.049 3.92707C49.3483 3.00576 50.6517 3.00576 50.9511 3.92707L52.0206 7.21886C52.1545 7.63089 52.5385 7.90985 52.9717 7.90985H56.4329C57.4016 7.90985 57.8044 9.14946 57.0207 9.71886L54.2205 11.7533C53.87 12.0079 53.7234 12.4593 53.8572 12.8713L54.9268 16.1631C55.2262 17.0844 54.1717 17.8506 53.388 17.2812L50.5878 15.2467C50.2373 14.9921 49.7627 14.9921 49.4122 15.2467L46.6121 17.2812C45.8283 17.8506 44.7739 17.0844 45.0732 16.1631L46.1428 12.8713C46.2767 12.4593 46.13 12.0079 45.7795 11.7533L42.9793 9.71886C42.1956 9.14946 42.5984 7.90985 43.5671 7.90985H47.0283C47.4616 7.90985 47.8455 7.63089 47.9794 7.21886L49.049 3.92707Z" fill="#EAB308"/>
<path d="M69.049 3.92707C69.3483 3.00576 70.6517 3.00576 70.9511 3.92707L72.0206 7.21886C72.1545 7.63089 72.5385 7.90985 72.9717 7.90985H76.4329C77.4016 7.90985 77.8044 9.14946 77.0207 9.71886L74.2205 11.7533C73.87 12.0079 73.7234 12.4593 73.8572 12.8713L74.9268 16.1631C75.2262 17.0844 74.1717 17.8506 73.388 17.2812L70.5878 15.2467C70.2373 14.9921 69.7627 14.9921 69.4122 15.2467L66.6121 17.2812C65.8283 17.8506 64.7739 17.0844 65.0732 16.1631L66.1428 12.8713C66.2767 12.4593 66.13 12.0079 65.7795 11.7533L62.9793 9.71886C62.1956 9.14946 62.5984 7.90985 63.5671 7.90985H67.0283C67.4616 7.90985 67.8455 7.63089 67.9794 7.21886L69.049 3.92707Z" fill="#EAB308"/>
<path d="M89.049 3.92707C89.3483 3.00576 90.6517 3.00576 90.9511 3.92707L92.0206 7.21886C92.1545 7.63089 92.5385 7.90985 92.9717 7.90985H96.4329C97.4016 7.90985 97.8044 9.14946 97.0207 9.71886L94.2205 11.7533C93.87 12.0079 93.7234 12.4593 93.8572 12.8713L94.9268 16.1631C95.2262 17.0844 94.1717 17.8506 93.388 17.2812L90.5878 15.2467C90.2373 14.9921 89.7627 14.9921 89.4122 15.2467L86.6121 17.2812C85.8283 17.8506 84.7739 17.0844 85.0732 16.1631L86.1428 12.8713C86.2767 12.4593 86.13 12.0079 85.7795 11.7533L82.9793 9.71886C82.1956 9.14946 82.5984 7.90985 83.5671 7.90985H87.0283C87.4616 7.90985 87.8455 7.63089 87.9794 7.21886L89.049 3.92707Z" fill="#EAB308"/>
</svg>
